<mxfile host="app.diagrams.net" modified="2023-06-27T08:11:08.353Z" agent="Mozilla/5.0 (Windows NT 10.0; Win64; x64) AppleWebKit/537.36 (KHTML, like Gecko) Chrome/113.0.0.0 Safari/537.36" etag="gib7UpC6Jeb0N-m8JaZR" version="21.5.0" type="github">
  <diagram name="第 1 页" id="Z7eyNQE-7LgJcMWnJCd3">
    <mxGraphModel dx="1886" dy="820" grid="1" gridSize="10" guides="1" tooltips="1" connect="1" arrows="1" fold="1" page="1" pageScale="1" pageWidth="1200" pageHeight="1600" math="0" shadow="0">
      <root>
        <mxCell id="0" />
        <mxCell id="1" parent="0" />
        <mxCell id="zvVPR4bvKhQsa7UGXY-B-1" value="&lt;b&gt;&lt;font style=&quot;font-size: 14px;&quot;&gt;Opera Mini （58）&lt;/font&gt;&lt;/b&gt;&lt;br&gt;&lt;br&gt;&lt;b&gt;&lt;font style=&quot;font-size: 13px;&quot;&gt;Data Savings模式：&lt;br&gt;&lt;/font&gt;&lt;/b&gt;&lt;br&gt;1. Automatic&lt;br&gt;&lt;b&gt;2. Extreme&lt;/b&gt;&lt;br&gt;3. High&lt;br&gt;4. off" style="text;html=1;strokeColor=none;fillColor=none;align=left;verticalAlign=middle;whiteSpace=wrap;rounded=0;" vertex="1" parent="1">
          <mxGeometry x="110" y="60" width="200" height="150" as="geometry" />
        </mxCell>
        <mxCell id="zvVPR4bvKhQsa7UGXY-B-5" value="" style="edgeStyle=orthogonalEdgeStyle;rounded=0;orthogonalLoop=1;jettySize=auto;html=1;" edge="1" parent="1" source="zvVPR4bvKhQsa7UGXY-B-2" target="zvVPR4bvKhQsa7UGXY-B-4">
          <mxGeometry relative="1" as="geometry" />
        </mxCell>
        <mxCell id="zvVPR4bvKhQsa7UGXY-B-7" value="" style="edgeStyle=orthogonalEdgeStyle;rounded=0;orthogonalLoop=1;jettySize=auto;html=1;" edge="1" parent="1" source="zvVPR4bvKhQsa7UGXY-B-2" target="zvVPR4bvKhQsa7UGXY-B-6">
          <mxGeometry relative="1" as="geometry" />
        </mxCell>
        <mxCell id="zvVPR4bvKhQsa7UGXY-B-2" value="浏览器兼容" style="rounded=1;whiteSpace=wrap;html=1;" vertex="1" parent="1">
          <mxGeometry x="100" y="330" width="120" height="60" as="geometry" />
        </mxCell>
        <mxCell id="zvVPR4bvKhQsa7UGXY-B-4" value="browerslist" style="rounded=1;whiteSpace=wrap;html=1;" vertex="1" parent="1">
          <mxGeometry x="305" y="240" width="120" height="60" as="geometry" />
        </mxCell>
        <mxCell id="zvVPR4bvKhQsa7UGXY-B-6" value="transpileDependencies" style="rounded=1;whiteSpace=wrap;html=1;" vertex="1" parent="1">
          <mxGeometry x="280" y="410" width="170" height="60" as="geometry" />
        </mxCell>
      </root>
    </mxGraphModel>
  </diagram>
</mxfile>
